<?xml version="1.0" encoding="UTF-8" standalone="no"?>
<!-- Created with Inkscape (http://www.inkscape.org/) -->

<svg
   xmlns:dc="http://purl.org/dc/elements/1.1/"
   xmlns:cc="http://creativecommons.org/ns#"
   xmlns:rdf="http://www.w3.org/1999/02/22-rdf-syntax-ns#"
   xmlns:svg="http://www.w3.org/2000/svg"
   xmlns="http://www.w3.org/2000/svg"
   xmlns:sodipodi="http://sodipodi.sourceforge.net/DTD/sodipodi-0.dtd"
   xmlns:inkscape="http://www.inkscape.org/namespaces/inkscape"
   width="210mm"
   height="297mm"
   viewBox="0 0 744.09448819 1052.3622047"
   id="svg2"
   version="1.1"
   inkscape:version="0.91 r13725"
   enable-background="new"
   inkscape:export-filename="C:\Users\Tedliitlebitch\Dropbox\TNMS\Web\images\traffic_light_frame.png"
   inkscape:export-xdpi="171.80267"
   inkscape:export-ydpi="171.80267"
   sodipodi:docname="trafficLight_frame.svg">
  <defs
     id="defs4">
    <inkscape:path-effect
       effect="spiro"
       id="path-effect4352"
       is_visible="true" />
    <inkscape:path-effect
       effect="spiro"
       id="path-effect4170"
       is_visible="true" />
    <inkscape:path-effect
       effect="spiro"
       id="path-effect4170-7"
       is_visible="true" />
    <inkscape:path-effect
       effect="spiro"
       id="path-effect4170-7-8"
       is_visible="true" />
    <inkscape:path-effect
       effect="spiro"
       id="path-effect4170-7-8-7"
       is_visible="true" />
    <inkscape:path-effect
       effect="spiro"
       id="path-effect4170-7-2"
       is_visible="true" />
    <inkscape:path-effect
       effect="spiro"
       id="path-effect4170-6"
       is_visible="true" />
    <inkscape:path-effect
       effect="spiro"
       id="path-effect4352-2"
       is_visible="true" />
    <inkscape:path-effect
       effect="spiro"
       id="path-effect4352-4"
       is_visible="true" />
  </defs>
  <sodipodi:namedview
     id="base"
     pagecolor="#ffffff"
     bordercolor="#666666"
     borderopacity="1.0"
     inkscape:pageopacity="0.0"
     inkscape:pageshadow="2"
     inkscape:zoom="1.979899"
     inkscape:cx="241.8135"
     inkscape:cy="689.28461"
     inkscape:document-units="px"
     inkscape:current-layer="layer2"
     showgrid="false"
     inkscape:window-width="1366"
     inkscape:window-height="715"
     inkscape:window-x="-8"
     inkscape:window-y="-8"
     inkscape:window-maximized="1" />
  <metadata
     id="metadata7">
    <rdf:RDF>
      <cc:Work
         rdf:about="">
        <dc:format>image/svg+xml</dc:format>
        <dc:type
           rdf:resource="http://purl.org/dc/dcmitype/StillImage" />
        <dc:title />
      </cc:Work>
    </rdf:RDF>
  </metadata>
  <g
     inkscape:groupmode="layer"
     id="layer2"
     inkscape:label="drawing"
     style="opacity:1;">
    <path
       style="fill:#373737;fill-opacity:1;fill-rule:evenodd;stroke:#000000;stroke-width:2.7;stroke-linecap:butt;stroke-linejoin:miter;stroke-opacity:1;stroke-miterlimit:4;stroke-dasharray:none"
       d="m 238.21429,302.89792 -0.35715,-45.89286 -38.03571,-0.35714 0.80358,4.46429 c 0.53307,2.96145 1.13821,5.93948 2.37172,8.68407 1.23351,2.74459 3.07061,5.20991 5.32464,7.20332 2.25403,1.9934 4.88412,3.51155 7.55889,4.88993 2.67478,1.37838 5.42181,2.65236 7.87571,4.39383 5.37644,3.81553 9.08032,9.90686 9.99403,16.43599 l 4.46429,0.17857 z"
       id="path4168"
       inkscape:path-effect="#path-effect4170"
       inkscape:original-d="m 238.21429,302.89792 c -3.16436,-15.29762 -2.90176,-30.59524 -0.35715,-45.89286 l -38.03571,-0.35714 0.80358,4.46429 c 1.04317,5.7954 22.8727,19.36058 23.13096,25.17115 0.25827,5.81056 -2.32786,10.28772 9.99403,16.43599 z"
       inkscape:connector-curvature="0"
       sodipodi:nodetypes="cccszcc" />
    <path
       style="opacity:1;fill:#373737;fill-opacity:1;fill-rule:evenodd;stroke:#000000;stroke-width:2.7;stroke-linecap:butt;stroke-linejoin:miter;stroke-opacity:1;stroke-miterlimit:4;stroke-dasharray:none"
       d="m 238.1725,366.19403 -0.35715,-45.89286 -38.03571,-0.35714 0.80358,4.46429 c 0.53307,2.96145 1.13821,5.93948 2.37172,8.68407 1.23351,2.74459 3.07061,5.20991 5.32464,7.20332 2.25403,1.9934 4.88412,3.51155 7.55889,4.88993 2.67478,1.37838 5.42181,2.65236 7.87571,4.39383 5.37644,3.81553 9.08032,9.90686 9.99403,16.43599 l 4.46429,0.17857 z"
       id="path4168-9"
       inkscape:path-effect="#path-effect4170-7"
       inkscape:original-d="m 238.1725,366.19403 c -3.16436,-15.29762 -2.90176,-30.59524 -0.35715,-45.89286 l -38.03571,-0.35714 0.80358,4.46429 c 1.04317,5.7954 22.8727,19.36058 23.13096,25.17115 0.25827,5.81056 -2.32786,10.28772 9.99403,16.43599 z"
       inkscape:connector-curvature="0"
       sodipodi:nodetypes="cccszcc" />
    <path
       style="opacity:1;fill:#373737;fill-opacity:1;fill-rule:evenodd;stroke:#000000;stroke-width:2.7;stroke-linecap:butt;stroke-linejoin:miter;stroke-opacity:1;stroke-miterlimit:4;stroke-dasharray:none"
       d="m 237.99393,429.22974 -0.35715,-45.89286 -38.03571,-0.35714 0.80358,4.46429 c 0.53307,2.96145 1.13821,5.93948 2.37172,8.68407 1.23351,2.74459 3.07061,5.20991 5.32464,7.20332 2.25403,1.9934 4.88412,3.51155 7.55889,4.88993 2.67478,1.37838 5.42181,2.65236 7.87571,4.39383 5.37644,3.81553 9.08032,9.90686 9.99403,16.43599 l 4.46429,0.17857 z"
       id="path4168-9-1"
       inkscape:path-effect="#path-effect4170-7-8"
       inkscape:original-d="m 237.99393,429.22974 c -3.16436,-15.29762 -2.90176,-30.59524 -0.35715,-45.89286 l -38.03571,-0.35714 0.80358,4.46429 c 1.04317,5.7954 22.8727,19.36058 23.13096,25.17115 0.25827,5.81056 -2.32786,10.28772 9.99403,16.43599 z"
       inkscape:connector-curvature="0"
       sodipodi:nodetypes="cccszcc" />
    <path
       style="opacity:1;fill:#373737;fill-opacity:1;fill-rule:evenodd;stroke:#000000;stroke-width:2.7;stroke-linecap:butt;stroke-linejoin:miter;stroke-opacity:1;stroke-miterlimit:4;stroke-dasharray:none"
       d="m 321.63439,303.09311 0.35715,-45.89286 38.03571,-0.35714 -0.80358,4.46429 c -0.53307,2.96145 -1.13821,5.93948 -2.37172,8.68407 -1.23351,2.74459 -3.07061,5.20991 -5.32464,7.20332 -2.25403,1.9934 -4.88412,3.51155 -7.55889,4.88993 -2.67478,1.37838 -5.42181,2.65236 -7.87571,4.39383 -5.37644,3.81553 -9.08032,9.90686 -9.99403,16.43599 l -4.46429,0.17857 z"
       id="path4168-2"
       inkscape:path-effect="#path-effect4170-6"
       inkscape:original-d="m 321.63439,303.09311 c 3.16436,-15.29762 2.90176,-30.59524 0.35715,-45.89286 l 38.03571,-0.35714 -0.80358,4.46429 c -1.04317,5.7954 -22.8727,19.36058 -23.13096,25.17115 -0.25827,5.81056 2.32786,10.28772 -9.99403,16.43599 z"
       inkscape:connector-curvature="0"
       sodipodi:nodetypes="cccszcc" />
    <path
       style="opacity:1;fill:#373737;fill-opacity:1;fill-rule:evenodd;stroke:#000000;stroke-width:2.7;stroke-linecap:butt;stroke-linejoin:miter;stroke-opacity:1;stroke-miterlimit:4;stroke-dasharray:none"
       d="m 321.67618,366.38923 0.35715,-45.89287 38.03571,-0.35714 -0.80358,4.46429 c -0.53307,2.96145 -1.13821,5.93948 -2.37172,8.68407 -1.23351,2.74459 -3.07061,5.20991 -5.32464,7.20332 -2.25403,1.9934 -4.88412,3.51155 -7.55889,4.88993 -2.67478,1.37838 -5.42181,2.65236 -7.87571,4.39383 -5.37644,3.81553 -9.08032,9.90687 -9.99403,16.436 l -4.46429,0.17857 z"
       id="path4168-9-10"
       inkscape:path-effect="#path-effect4170-7-2"
       inkscape:original-d="m 321.67618,366.38923 c 3.16436,-15.29763 2.90176,-30.59525 0.35715,-45.89287 l 38.03571,-0.35714 -0.80358,4.46429 c -1.04317,5.7954 -22.8727,19.36058 -23.13096,25.17115 -0.25827,5.81056 2.32786,10.28773 -9.99403,16.436 z"
       inkscape:connector-curvature="0"
       sodipodi:nodetypes="cccszcc" />
    <path
       style="opacity:1;fill:#373737;fill-opacity:1;fill-rule:evenodd;stroke:#000000;stroke-width:2.7;stroke-linecap:butt;stroke-linejoin:miter;stroke-opacity:1;stroke-miterlimit:4;stroke-dasharray:none"
       d="m 321.85475,429.42494 0.35715,-45.89286 38.03571,-0.35714 -0.80358,4.46429 c -0.53307,2.96145 -1.13821,5.93948 -2.37172,8.68407 -1.23351,2.74459 -3.07061,5.20991 -5.32464,7.20332 -2.25403,1.9934 -4.88412,3.51155 -7.55889,4.88993 -2.67478,1.37838 -5.42181,2.65236 -7.87571,4.39383 -5.37644,3.81553 -9.08032,9.90686 -9.99403,16.43599 l -4.46429,0.17857 z"
       id="path4168-9-1-8"
       inkscape:path-effect="#path-effect4170-7-8-7"
       inkscape:original-d="m 321.85475,429.42494 c 3.16436,-15.29762 2.90176,-30.59524 0.35715,-45.89286 l 38.03571,-0.35714 -0.80358,4.46429 c -1.04317,5.7954 -22.8727,19.36058 -23.13096,25.17115 -0.25827,5.81056 2.32786,10.28772 -9.99403,16.43599 z"
       inkscape:connector-curvature="0"
       sodipodi:nodetypes="cccszcc" />
    <rect
       style="fill:#ffffff;fill-opacity:1;stroke:#000000;stroke-width:8.773;stroke-linecap:round;stroke-linejoin:round;stroke-miterlimit:41.79999924;stroke-dasharray:none;stroke-dashoffset:0;stroke-opacity:1"
       id="rect4266"
       width="75.055443"
       height="200.76971"
       x="242.29373"
       y="245.01308" />
    <path
       style="fill:#000000;fill-rule:evenodd;stroke:#000000;stroke-width:1px;stroke-linecap:butt;stroke-linejoin:miter;stroke-opacity:1;fill-opacity:1"
       d="m 254.28571,287.3622 -1.36877,-1.70578 c -0.52019,-7.37515 2.13468,-14.92081 7.15833,-20.34541 5.02366,-5.4246 12.34367,-8.64993 19.73699,-8.69648 7.34486,-0.0462 14.65786,3.04352 19.74451,8.34212 5.08665,5.29859 7.87548,12.73156 7.52961,20.06842 l -1.51523,2.27285 -51.28544,0.0643 z"
       id="path4350"
       inkscape:path-effect="#path-effect4352"
       inkscape:original-d="m 254.28571,287.3622 -1.36877,-1.70578 c 0,0 17.5935,-28.9998 26.89532,-29.04189 9.30182,-0.0421 27.27412,28.41054 27.27412,28.41054 l -1.51523,2.27285 z"
       inkscape:connector-curvature="0"
       sodipodi:nodetypes="cczccc" />
    <circle
       style="fill:#373737;fill-opacity:1;stroke:#000000;stroke-width:7.72836208;stroke-linecap:round;stroke-linejoin:round;stroke-miterlimit:41.79999924;stroke-dasharray:none;stroke-dashoffset:0;stroke-opacity:1"
       id="path4348"
       cx="280"
       cy="287.00504"
       r="21.236607" />
    <path
       style="opacity:1;fill:#000000;fill-opacity:1;fill-rule:evenodd;stroke:#000000;stroke-width:1px;stroke-linecap:butt;stroke-linejoin:miter;stroke-opacity:1"
       d="m 254.36668,350.78055 -1.36877,-1.70578 c -0.52019,-7.37515 2.13468,-14.92081 7.15833,-20.34541 5.02366,-5.4246 12.34367,-8.64993 19.73699,-8.69648 7.34486,-0.0462 14.65786,3.04352 19.74451,8.34212 5.08665,5.29859 7.87548,12.73156 7.52961,20.06842 l -1.51523,2.27285 -51.28544,0.0643 z"
       id="path4350-0"
       inkscape:path-effect="#path-effect4352-2"
       inkscape:original-d="m 254.36668,350.78055 -1.36877,-1.70578 c 0,0 17.5935,-28.9998 26.89532,-29.04189 9.30182,-0.0421 27.27412,28.41054 27.27412,28.41054 l -1.51523,2.27285 z"
       inkscape:connector-curvature="0"
       sodipodi:nodetypes="cczccc" />
    <circle
       style="opacity:1;fill:#373737;fill-opacity:1;stroke:#000000;stroke-width:7.72836208;stroke-linecap:round;stroke-linejoin:round;stroke-miterlimit:41.79999924;stroke-dasharray:none;stroke-dashoffset:0;stroke-opacity:1"
       id="path4348-8"
       cx="280.08099"
       cy="350.4234"
       r="21.236607" />
    <path
       style="opacity:1;fill:#000000;fill-opacity:1;fill-rule:evenodd;stroke:#000000;stroke-width:1px;stroke-linecap:butt;stroke-linejoin:miter;stroke-opacity:1"
       d="m 254.61922,414.16762 -1.36877,-1.70578 c -0.52019,-7.37515 2.13468,-14.92081 7.15833,-20.34541 5.02366,-5.4246 12.34367,-8.64993 19.73699,-8.69648 7.34486,-0.0462 14.65786,3.04352 19.74451,8.34212 5.08665,5.29859 7.87548,12.73156 7.52961,20.06842 l -1.51523,2.27285 -51.28544,0.0643 z"
       id="path4350-3"
       inkscape:path-effect="#path-effect4352-4"
       inkscape:original-d="m 254.61922,414.16762 -1.36877,-1.70578 c 0,0 17.5935,-28.9998 26.89532,-29.04189 9.30182,-0.0421 27.27412,28.41054 27.27412,28.41054 l -1.51523,2.27285 z"
       inkscape:connector-curvature="0"
       sodipodi:nodetypes="cczccc" />
    <circle
       style="opacity:1;fill:#373737;fill-opacity:1;stroke:#000000;stroke-width:7.72836208;stroke-linecap:round;stroke-linejoin:round;stroke-miterlimit:41.79999924;stroke-dasharray:none;stroke-dashoffset:0;stroke-opacity:1"
       id="path4348-9"
       cx="280.3335"
       cy="413.81046"
       r="21.236607" />
  </g>
</svg>
